<svg width="47" height="57" viewBox="0 0 47 57" fill="none" xmlns="http://www.w3.org/2000/svg">
<mask id="path-1-outside-1_436_2738" maskUnits="userSpaceOnUse" x="0" y="-1" width="47" height="58" fill="black">
<rect fill="white" y="-1" width="47" height="58"/>
<path d="M37.04 56.72L23.68 36L10.8 56.8L2.16 52.56L17.92 28.56L0.96 6.8L10.88 0.319997L23.76 20.32L36.16 -3.8147e-06L44.56 4.96L29.92 27.76L46.88 50.48L37.04 56.72Z"/>
</mask>
<path d="M37.04 56.72L23.68 36L10.8 56.8L2.16 52.56L17.92 28.56L0.96 6.8L10.88 0.319997L23.76 20.32L36.16 -3.8147e-06L44.56 4.96L29.92 27.76L46.88 50.48L37.04 56.72Z" fill="#F28C8A"/>
<path d="M37.04 56.72L36.977 56.7606L37.0173 56.8232L37.0802 56.7833L37.04 56.72ZM23.68 36L23.743 35.9594L23.6787 35.8596L23.6162 35.9605L23.68 36ZM10.8 56.8L10.767 56.8673L10.828 56.8973L10.8638 56.8395L10.8 56.8ZM2.16 52.56L2.09731 52.5188L2.05065 52.5899L2.12696 52.6273L2.16 52.56ZM17.92 28.56L17.9827 28.6012L18.0122 28.5563L17.9792 28.5139L17.92 28.56ZM0.96 6.8L0.918984 6.73721L0.850724 6.7818L0.900845 6.84611L0.96 6.8ZM10.88 0.319996L10.9431 0.279388L10.9022 0.215923L10.839 0.257206L10.88 0.319996ZM23.76 20.32L23.6969 20.3606L23.7617 20.4612L23.824 20.3591L23.76 20.32ZM36.16 -3.8147e-06L36.1981 -0.0645847L36.1345 -0.102169L36.096 -0.039072L36.16 -3.8147e-06ZM44.56 4.96L44.6231 5.00052L44.6652 4.93501L44.5981 4.89542L44.56 4.96ZM29.92 27.76L29.8569 27.7195L29.8288 27.7632L29.8599 27.8049L29.92 27.76ZM46.88 50.48L46.9202 50.5433L46.9885 50.5L46.9401 50.4351L46.88 50.48ZM37.103 56.6794L23.743 35.9594L23.617 36.0406L36.977 56.7606L37.103 56.6794ZM23.6162 35.9605L10.7362 56.7605L10.8638 56.8395L23.7438 36.0395L23.6162 35.9605ZM10.833 56.7327L2.19304 52.4927L2.12696 52.6273L10.767 56.8673L10.833 56.7327ZM2.22269 52.6012L17.9827 28.6012L17.8573 28.5188L2.09731 52.5188L2.22269 52.6012ZM17.9792 28.5139L1.01915 6.75389L0.900845 6.84611L17.8608 28.6061L17.9792 28.5139ZM1.00102 6.86279L10.921 0.382788L10.839 0.257206L0.918984 6.73721L1.00102 6.86279ZM10.8169 0.360605L23.6969 20.3606L23.8231 20.2794L10.9431 0.279388L10.8169 0.360605ZM23.824 20.3591L36.224 0.0390644L36.096 -0.039072L23.696 20.2809L23.824 20.3591ZM36.1219 0.0645771L44.5219 5.02458L44.5981 4.89542L36.1981 -0.0645847L36.1219 0.0645771ZM44.4969 4.91948L29.8569 27.7195L29.9831 27.8005L44.6231 5.00052L44.4969 4.91948ZM29.8599 27.8049L46.8199 50.5249L46.9401 50.4351L29.9801 27.7151L29.8599 27.8049ZM46.8398 50.4167L36.9998 56.6567L37.0802 56.7833L46.9202 50.5433L46.8398 50.4167Z" fill="#1C212A" mask="url(#path-1-outside-1_436_2738)"/>
</svg>
