<svg width="54" height="56" viewBox="0 0 54 56" fill="none" xmlns="http://www.w3.org/2000/svg">
<path d="M51.9823 27.9982V11.4539C51.9823 6.23061 47.9133 2 42.8946 2H11.0877C6.06901 2 2 6.23061 2 11.4539V44.5425C2 49.7657 6.06901 53.9964 11.0877 53.9964H26.9911" stroke="#8CC5EA" stroke-width="3"/>
<path d="M51.9845 25.6393C51.9845 25.6393 52.3348 31.4324 49.6898 34.5112C47.0449 37.59 41.5444 35.8075 38.799 38.9471C36.0557 42.107 39.0273 46.705 34.9103 50.4928C30.7933 54.2603 22.4648 53.997 22.4648 53.997" stroke="#8CC5EA" stroke-width="3"/>
<path d="M2 16.1809H51.9823" stroke="#8CC5EA" stroke-width="3"/>
<ellipse cx="12.2233" cy="26.8164" rx="3.40788" ry="3.54521" fill="white"/>
<ellipse cx="24.7194" cy="26.8164" rx="3.40788" ry="3.54521" fill="white"/>
<ellipse cx="37.2155" cy="26.8164" rx="3.40788" ry="3.54521" fill="white"/>
<ellipse cx="12.2233" cy="38.6337" rx="3.40788" ry="3.54521" fill="white"/>
<ellipse cx="24.7194" cy="38.6337" rx="3.40788" ry="3.54521" fill="white"/>
<path d="M51.9822 13.8174C51.9822 13.8174 51.9822 23.2713 51.9822 27.9982V44.9964C51.9822 49.9669 47.9527 53.9964 42.9822 53.9964H17.9033" stroke="#8CC5EA" stroke-width="3"/>
</svg>
